<svg width="100" height="100" viewBox="0 0 100 100" fill="none" xmlns="http://www.w3.org/2000/svg">
<g filter="url(#filter0_b_1513_763)">
<circle cx="50" cy="50" r="50" fill="white" fill-opacity="0.15"/>
<circle cx="50" cy="50" r="49.5" stroke="white" stroke-opacity="0.3"/>
</g>
<path d="M50 83C68.2254 83 83 68.2254 83 50C83 31.7746 68.2254 17 50 17C31.7746 17 17 31.7746 17 50C17 68.2254 31.7746 83 50 83Z" fill="#F49B33"/>
<path d="M62.1563 43.2608C61.8336 39.1224 58.2837 37.6733 53.7909 37.1987L53.8921 31.4656L50.4054 31.4086L50.3042 36.9898C49.3866 36.9709 48.4501 36.9772 47.5136 36.9772L47.6148 31.358L44.1281 31.2947L44.0269 37.0278C43.2739 37.0278 42.5272 37.0341 41.8058 37.0152V36.9962L36.9903 36.9139L36.927 40.641C36.927 40.641 39.5088 40.6347 39.4645 40.6853C40.8756 40.7107 41.3249 41.5396 41.4451 42.2483L41.3312 48.7787C41.4261 48.7787 41.5527 48.7851 41.6982 48.8104L41.3312 48.804L41.173 57.9542C41.1034 58.3971 40.8313 59.0995 39.8378 59.0869C39.8821 59.1248 37.3003 59.0426 37.3003 59.0426L36.5347 63.1937L41.0781 63.2759C41.9197 63.2949 42.755 63.3202 43.5713 63.3392L43.47 69.1356L46.9567 69.1925L47.058 63.4595C48.0135 63.4911 48.9437 63.5164 49.8486 63.5354L49.7473 69.2432L53.234 69.3001L53.3352 63.5164C59.2075 63.2823 63.3397 61.8775 63.9471 56.3722C64.4344 51.9427 62.3841 49.9241 59.0683 49.0698C61.1059 48.0827 62.4031 46.2919 62.1563 43.2608ZM57.056 55.5749C56.9864 59.9095 49.5701 59.283 47.2035 59.2451L47.3427 51.563C49.7094 51.601 57.1383 51.0504 57.056 55.5749ZM55.6259 44.7036C55.5563 48.6458 49.374 48.0763 47.406 48.0447L47.5262 41.0777C49.4942 41.1093 55.6956 40.5904 55.6259 44.7036Z" fill="white"/>
<defs>
<filter id="filter0_b_1513_763" x="-20" y="-20" width="140" height="140" filterUnits="userSpaceOnUse" color-interpolation-filters="sRGB">
<feFlood flood-opacity="0" result="BackgroundImageFix"/>
<feGaussianBlur in="BackgroundImage" stdDeviation="10"/>
<feComposite in2="SourceAlpha" operator="in" result="effect1_backgroundBlur_1513_763"/>
<feBlend mode="normal" in="SourceGraphic" in2="effect1_backgroundBlur_1513_763" result="shape"/>
</filter>
</defs>
</svg>
