<svg width="100" height="100" viewBox="0 0 100 100" fill="none" xmlns="http://www.w3.org/2000/svg">
<path d="M50 100C77.6142 100 100 77.6142 100 50C100 22.3858 77.6142 0 50 0C22.3858 0 0 22.3858 0 50C0 77.6142 22.3858 100 50 100Z" fill="white" fill-opacity="0.15"/>
<path d="M50 99.5C77.3381 99.5 99.5 77.3381 99.5 50C99.5 22.6619 77.3381 0.5 50 0.5C22.6619 0.5 0.5 22.6619 0.5 50C0.5 77.3381 22.6619 99.5 50 99.5Z" stroke="white" stroke-opacity="0.3"/>
<g filter="url(#filter0_i_24_80)">
<path d="M83 50C83 31.7746 68.2254 17 50 17C31.7746 17 17 31.7746 17 50C17 68.2254 31.7746 83 50 83C68.2254 83 83 68.2254 83 50Z" fill="url(#paint0_linear_24_80)"/>
</g>
<g filter="url(#filter1_i_24_80)">
<path d="M59.8475 65.3996H50L55.6222 51.4899H65.3999L59.8475 65.3996Z" fill="white"/>
</g>
<path d="M66.15 49.0065H56.3555L57.758 45.5291H67.5385L66.15 49.0065Z" fill="white"/>
<g filter="url(#filter2_i_24_80)">
<path fill-rule="evenodd" clip-rule="evenodd" d="M37.6881 65.4H28L40.711 34.6H49.9999L49.9998 34.6002H72L68.5543 43.0454H46.624L41.064 56.9546H50.7559L47.3337 65.3998H37.6882L37.6881 65.4Z" fill="white"/>
</g>
<defs>
<filter id="filter0_i_24_80" x="17" y="17" width="66" height="70" filterUnits="userSpaceOnUse" color-interpolation-filters="sRGB">
<feFlood flood-opacity="0" result="BackgroundImageFix"/>
<feBlend mode="normal" in="SourceGraphic" in2="BackgroundImageFix" result="shape"/>
<feColorMatrix in="SourceAlpha" type="matrix" values="0 0 0 0 0 0 0 0 0 0 0 0 0 0 0 0 0 0 127 0" result="hardAlpha"/>
<feOffset dy="4"/>
<feGaussianBlur stdDeviation="15"/>
<feComposite in2="hardAlpha" operator="arithmetic" k2="-1" k3="1"/>
<feColorMatrix type="matrix" values="0 0 0 0 0.0627451 0 0 0 0 0.0627451 0 0 0 0 0.0627451 0 0 0 0.1 0"/>
<feBlend mode="normal" in2="shape" result="effect1_innerShadow_24_80"/>
</filter>
<filter id="filter1_i_24_80" x="50" y="51.4899" width="15.3999" height="17.9097" filterUnits="userSpaceOnUse" color-interpolation-filters="sRGB">
<feFlood flood-opacity="0" result="BackgroundImageFix"/>
<feBlend mode="normal" in="SourceGraphic" in2="BackgroundImageFix" result="shape"/>
<feColorMatrix in="SourceAlpha" type="matrix" values="0 0 0 0 0 0 0 0 0 0 0 0 0 0 0 0 0 0 127 0" result="hardAlpha"/>
<feOffset dy="4"/>
<feGaussianBlur stdDeviation="15"/>
<feComposite in2="hardAlpha" operator="arithmetic" k2="-1" k3="1"/>
<feColorMatrix type="matrix" values="0 0 0 0 0.0627451 0 0 0 0 0.0627451 0 0 0 0 0.0627451 0 0 0 0.1 0"/>
<feBlend mode="normal" in2="shape" result="effect1_innerShadow_24_80"/>
</filter>
<filter id="filter2_i_24_80" x="28" y="34.6" width="44" height="34.8" filterUnits="userSpaceOnUse" color-interpolation-filters="sRGB">
<feFlood flood-opacity="0" result="BackgroundImageFix"/>
<feBlend mode="normal" in="SourceGraphic" in2="BackgroundImageFix" result="shape"/>
<feColorMatrix in="SourceAlpha" type="matrix" values="0 0 0 0 0 0 0 0 0 0 0 0 0 0 0 0 0 0 127 0" result="hardAlpha"/>
<feOffset dy="4"/>
<feGaussianBlur stdDeviation="15"/>
<feComposite in2="hardAlpha" operator="arithmetic" k2="-1" k3="1"/>
<feColorMatrix type="matrix" values="0 0 0 0 0.0627451 0 0 0 0 0.0627451 0 0 0 0 0.0627451 0 0 0 0.1 0"/>
<feBlend mode="normal" in2="shape" result="effect1_innerShadow_24_80"/>
</filter>
<linearGradient id="paint0_linear_24_80" x1="50" y1="17" x2="50" y2="83" gradientUnits="userSpaceOnUse">
<stop stop-color="#83CF8E"/>
<stop offset="1" stop-color="#6960FE"/>
</linearGradient>
</defs>
</svg>
