<svg width="100" height="100" viewBox="0 0 100 100" fill="none" xmlns="http://www.w3.org/2000/svg">
<path d="M50 100C77.6142 100 100 77.6142 100 50C100 22.3858 77.6142 0 50 0C22.3858 0 0 22.3858 0 50C0 77.6142 22.3858 100 50 100Z" fill="white" fill-opacity="0.15"/>
<path d="M50 99.5C77.3381 99.5 99.5 77.3381 99.5 50C99.5 22.6619 77.3381 0.5 50 0.5C22.6619 0.5 0.5 22.6619 0.5 50C0.5 77.3381 22.6619 99.5 50 99.5Z" stroke="white" stroke-opacity="0.3"/>
<path d="M54.3423 83H45.0076L40.3612 74.9056H49.6843L54.3423 83Z" fill="#428F8F"/>
<path d="M54.3423 65.2715L52.6087 68.306L49.673 73.4872H40.3461L42.0868 70.4299H47.6589C47.6765 70.4317 47.6943 70.4317 47.7121 70.4299H47.8219C47.8599 70.4121 47.8967 70.3919 47.932 70.3693H47.9549L48.0495 70.2895L48.0914 70.2402L48.1178 70.21L48.1596 70.1455L48.1822 70.1037L50.8982 65.4003L50.8641 65.3397L54.3423 65.2715V65.2715Z" fill="#428F8F"/>
<path d="M60.2519 74.1586L55.5675 82.2832L50.9095 74.1927L55.5675 65.9731L60.2519 74.1586Z" fill="#428F8F"/>
<path d="M59.0608 39.0085L60.722 41.9215H57.6195L55.628 38.4509L60.0886 30.6942L61.6513 33.372L58.9243 38.1475C58.9079 38.1741 58.894 38.202 58.8824 38.2309C58.8824 38.2309 58.8824 38.2651 58.8634 38.2802V38.4395C58.8682 38.5544 58.9005 38.6663 58.9584 38.7657L59.0608 39.0085V39.0085Z" fill="#428F8F"/>
<path d="M80.2259 38.7126L75.9927 46.5263L75.9814 46.5035L71.3311 38.4888L75.6172 30.7358L77.9198 34.7242L80.2221 38.7126H80.2259V38.7126Z" fill="#428F8F"/>
<path d="M74.3998 30.0076L70.1173 37.7492L70.0909 37.7947H60.7372L62.9902 33.8993L63.29 33.3796L65.2129 30.0645L74.3998 30.0076Z" fill="#428F8F"/>
<path d="M74.8055 47.2925H71.5398V47.2432L68.6721 42.2591L68.6267 42.1946C68.603 42.1641 68.5762 42.1361 68.5469 42.1112L68.5282 42.0922L68.437 42.0277L68.3346 41.9784C68.2993 41.9631 68.2622 41.9516 68.2245 41.9443C68.175 41.9324 68.1239 41.926 68.0729 41.9253H62.3301L60.779 39.2209H60.8167L64.2305 39.2019H65.8424L70.1134 39.1754L70.1401 39.2209L74.7791 47.2545L74.8055 47.2925V47.2925Z" fill="#428F8F"/>
<path d="M62.3265 68.9925H58.9127L56.1819 64.2246L56.159 64.1828L56.1326 64.1448L56.102 64.1107L56.0679 64.0765L56.0338 64.0463L56.0035 63.9819L55.9275 63.9287L55.8821 63.9097H55.7569C55.7382 63.9062 55.7189 63.9062 55.7002 63.9097H51.7515L53.4584 60.9512H57.6309L62.3265 68.9925Z" fill="#428F8F"/>
<path d="M72.7876 52.3524L63.563 68.2909L58.8824 60.1811L65.7326 48.1308V48.127L65.7629 48.0739L68.0577 44.0381L69.8783 47.2546L69.8973 47.2849L70.3487 48.0739L70.3677 48.1042L70.6901 48.6694L70.7052 48.6997L70.7203 48.7263L72.7876 52.3524V52.3524Z" fill="#428F8F"/>
<path d="M57.5513 59.4757L53.4887 59.4605L50.8943 54.9468L54.9112 48.1004L54.9264 48.0738L55.393 47.2773L57.2477 44.1215L57.57 43.5639L57.6952 43.3515H58.4349L61.5415 43.3401L62.1671 43.3363H62.8726L63.6048 43.3325L66.734 43.3212L57.5513 59.4757V59.4757Z" fill="#428F8F"/>
<path d="M52.2483 60.1434L51.8272 60.8714L50.1167 63.8377L50.0861 63.8946L49.3011 65.2525L49.267 65.313L47.5526 68.2831L47.1885 67.642L38.4151 52.2803L40.4784 48.6693L45.6371 48.6655L45.6445 48.6769L49.2518 54.943L49.3011 55.0264L50.0674 56.354L50.1128 56.4375L51.85 59.4567L52.2483 60.1434V60.1434Z" fill="#428F8F"/>
<path d="M39.2229 48.0056L39.1888 48.0625L37.1824 51.571L27.8553 51.5217L29.4826 48.7186H35.4187C35.4463 48.7226 35.4744 48.7226 35.5021 48.7186H35.6159L35.6842 48.6921L35.76 48.6466L35.8321 48.5935L35.8662 48.5594C35.9117 48.514 35.9512 48.463 35.9838 48.4076L37.649 45.3998L37.6717 45.358L39.2229 48.0056V48.0056Z" fill="#428F8F"/>
<path d="M46.3314 69.0076L42.895 69.0266L41.2564 69.0379L37.0877 69.0608L27.8517 52.9441L37.1826 52.9896L43.7976 64.5734L44.0593 65.0287L44.6132 66.0034L46.3314 69.0076Z" fill="#428F8F"/>
<path d="M34.1251 47.3001L24.6388 47.3039L20.0037 39.2133H29.3307L34.1251 47.3001Z" fill="#428F8F"/>
<path d="M56.432 42.7029L53.7504 47.2697L46.464 47.2622H40.4256V47.2546H40.3609L40.3422 47.2242L38.4607 43.9319L38.1952 43.4691L37.63 42.4867L35.7411 39.1868H54.4105L54.4331 39.2247L56.432 42.7029V42.7029Z" fill="#428F8F"/>
<path d="M58.856 30L54.3954 37.7719L54.3725 37.8099L41.0476 37.7795H39.3823L36.3366 37.7757H35.7487L37.5352 34.7868L38.3583 33.4213L40.3988 30.0266L58.856 30V30Z" fill="#428F8F"/>
<path d="M36.841 43.8788L36.822 43.9091L35.3428 46.5642L33.4955 43.4388L30.5673 38.4926L35.0203 30.6904L36.7006 33.4138L33.909 38.0792C33.8453 38.1859 33.8112 38.3077 33.8103 38.432C33.8098 38.5566 33.8412 38.6794 33.9014 38.7885L33.9279 38.8302L35.76 42.0012L36.5793 43.416L36.841 43.8788V43.8788Z" fill="#428F8F"/>
<path d="M33.7763 30.0266L29.3422 37.7947H20L24.4379 30.0266H33.7763V30.0266Z" fill="#428F8F"/>
</svg>
