<svg width="100" height="100" viewBox="0 0 100 100" fill="none" xmlns="http://www.w3.org/2000/svg">
<g filter="url(#filter0_b_1513_369)">
<circle cx="50" cy="50" r="50" fill="white" fill-opacity="0.15"/>
<circle cx="50" cy="50" r="49.5" stroke="white" stroke-opacity="0.3"/>
</g>
<path d="M50 83C68.2254 83 83 68.2254 83 50C83 31.7746 68.2254 17 50 17C31.7746 17 17 31.7746 17 50C17 68.2254 31.7746 83 50 83Z" fill="#FCC136"/>
<path fill-rule="evenodd" clip-rule="evenodd" d="M37.4845 34.46H50.0547C57.7012 34.46 63.4968 38.5696 65.6539 44.55H69.5703V48.1645H66.4778C66.5385 48.7358 66.5695 49.3171 66.5695 49.9082V49.9971C66.5695 50.663 66.53 51.3176 66.4538 51.9581H69.5689V55.5726H65.5777C63.3642 61.4697 57.6138 65.5399 50.0533 65.5399H37.4831V55.5726H33.1152V51.9581H37.4831V48.1645H33.1152V44.55H37.4831V34.46H37.4845ZM40.9988 55.5726V62.2978H50.0547C55.6429 62.2978 59.7949 59.6046 61.7291 55.5726H40.9988ZM62.8055 51.9581H40.9988V48.1645H62.8111C62.8916 48.7612 62.9339 49.3735 62.9339 49.9971V50.086C62.9325 50.7251 62.8901 51.35 62.8055 51.9581ZM50.0547 37.6963C55.6697 37.6963 59.8344 40.4615 61.7545 44.55H40.9988V37.6963H50.0547Z" fill="white"/>
<defs>
<filter id="filter0_b_1513_369" x="-20" y="-20" width="140" height="140" filterUnits="userSpaceOnUse" color-interpolation-filters="sRGB">
<feFlood flood-opacity="0" result="BackgroundImageFix"/>
<feGaussianBlur in="BackgroundImage" stdDeviation="10"/>
<feComposite in2="SourceAlpha" operator="in" result="effect1_backgroundBlur_1513_369"/>
<feBlend mode="normal" in="SourceGraphic" in2="effect1_backgroundBlur_1513_369" result="shape"/>
</filter>
</defs>
</svg>
