<svg width="100" height="100" viewBox="0 0 100 100" fill="none" xmlns="http://www.w3.org/2000/svg">
<g filter="url(#filter0_b_1513_397)">
<circle cx="50" cy="50" r="50" fill="white" fill-opacity="0.15"/>
<circle cx="50" cy="50" r="49.5" stroke="white" stroke-opacity="0.3"/>
</g>
<path d="M50 83C68.2254 83 83 68.2254 83 50C83 31.7746 68.2254 17 50 17C31.7746 17 17 31.7746 17 50C17 68.2254 31.7746 83 50 83Z" fill="#627EEA"/>
<path d="M51.0293 25.2456V43.5408L66.4918 50.4512L51.0293 25.2456Z" fill="white" fill-opacity="0.602"/>
<path d="M51.029 25.2455L35.5664 50.4511L51.029 43.5407V25.2455Z" fill="white"/>
<path d="M51.0293 62.3051V74.7365L66.5009 53.3289L51.0293 62.3051Z" fill="white" fill-opacity="0.602"/>
<path d="M51.029 74.7364V62.3051L35.5664 53.3288L51.029 74.7364Z" fill="white"/>
<path d="M51.0293 59.4273L66.4918 50.4511L51.0293 43.5408V59.4273Z" fill="white" fill-opacity="0.2"/>
<path d="M35.5664 50.451L51.029 59.4272V43.5407L35.5664 50.451Z" fill="white" fill-opacity="0.602"/>
<defs>
<filter id="filter0_b_1513_397" x="-20" y="-20" width="140" height="140" filterUnits="userSpaceOnUse" color-interpolation-filters="sRGB">
<feFlood flood-opacity="0" result="BackgroundImageFix"/>
<feGaussianBlur in="BackgroundImage" stdDeviation="10"/>
<feComposite in2="SourceAlpha" operator="in" result="effect1_backgroundBlur_1513_397"/>
<feBlend mode="normal" in="SourceGraphic" in2="effect1_backgroundBlur_1513_397" result="shape"/>
</filter>
</defs>
</svg>
