<svg width="100" height="100" viewBox="0 0 100 100" fill="none" xmlns="http://www.w3.org/2000/svg">
<g filter="url(#filter0_b_1513_421)">
<circle cx="50" cy="50" r="50" fill="white" fill-opacity="0.15"/>
<circle cx="50" cy="50" r="49.5" stroke="white" stroke-opacity="0.3"/>
</g>
<path d="M50 83C68.2886 83 83 68.2886 83 50C83 31.7114 68.2886 17 50 17C31.7114 17 17 31.7114 17 50C17 68.2886 31.7114 83 50 83Z" fill="#2775CA"/>
<path d="M59.0768 55.2239C59.0768 50.4125 56.1893 48.7625 50.4143 48.0728C46.2893 47.5217 45.4643 46.4228 45.4643 44.4989C45.4643 42.575 46.8404 41.3375 49.5893 41.3375C52.0643 41.3375 53.4404 42.1625 54.1268 44.225C54.2654 44.6375 54.678 44.9114 55.0905 44.9114H57.2915C57.8426 44.9114 58.2551 44.4989 58.2551 43.9478V43.8092C57.704 40.7831 55.229 38.4467 52.0676 38.1728V34.8728C52.0676 34.3217 51.6551 33.9092 50.9688 33.7739H48.9062C48.3551 33.7739 47.9426 34.1864 47.8073 34.8728V38.0342C43.6823 38.5853 41.0687 41.3342 41.0687 44.7728C41.0687 49.3103 43.8176 51.0989 49.5926 51.7853C53.4437 52.4717 54.6812 53.2967 54.6812 55.4978C54.6812 57.6989 52.7573 59.2103 50.1438 59.2103C46.5698 59.2103 45.3323 57.6989 44.9198 55.6364C44.7812 55.0853 44.3688 54.8114 43.9562 54.8114H41.6198C41.0687 54.8114 40.6562 55.2239 40.6562 55.775V55.9136C41.2074 59.3522 43.4051 61.8272 47.9426 62.5136V65.8136C47.9426 66.3647 48.3551 66.7772 49.0415 66.9125H51.104C51.6551 66.9125 52.0677 66.5 52.203 65.8136V62.5136C56.3247 61.8239 59.0768 58.9364 59.0768 55.2239Z" fill="white"/>
<path d="M42.9852 69.6614C32.2602 65.8103 26.7591 53.8478 30.7488 43.2614C32.8113 37.4864 37.3488 33.0875 42.9852 31.025C43.5363 30.7511 43.8102 30.3386 43.8102 29.6489V27.725C43.8102 27.1739 43.5363 26.7614 42.9852 26.6261C42.8466 26.6261 42.5727 26.6261 42.4341 26.7647C29.3727 30.8897 22.2216 44.7761 26.3466 57.8408C28.8216 65.5397 34.7352 71.4533 42.4341 73.9283C42.9852 74.2022 43.533 73.9283 43.6716 73.3772C43.8102 73.2386 43.8102 73.1033 43.8102 72.8261V70.9022C43.8102 70.4864 43.3977 69.9386 42.9852 69.6614ZM57.558 26.7614C57.0069 26.4875 56.4591 26.7614 56.3205 27.3125C56.1819 27.4511 56.1819 27.5864 56.1819 27.8636V29.7875C56.1819 30.3386 56.5944 30.8864 57.0069 31.1636C67.7319 35.0147 73.233 46.9772 69.2433 57.5636C67.1808 63.3386 62.6433 67.7375 57.0069 69.8C56.4558 70.0739 56.1819 70.4864 56.1819 71.1761V73.1C56.1819 73.6511 56.4558 74.0636 57.0069 74.1989C57.1455 74.1989 57.4194 74.1989 57.558 74.0603C70.6194 69.9353 77.7705 56.0489 73.6455 42.9842C71.1705 35.15 65.1216 29.2364 57.558 26.7614Z" fill="white"/>
<defs>
<filter id="filter0_b_1513_421" x="-20" y="-20" width="140" height="140" filterUnits="userSpaceOnUse" color-interpolation-filters="sRGB">
<feFlood flood-opacity="0" result="BackgroundImageFix"/>
<feGaussianBlur in="BackgroundImage" stdDeviation="10"/>
<feComposite in2="SourceAlpha" operator="in" result="effect1_backgroundBlur_1513_421"/>
<feBlend mode="normal" in="SourceGraphic" in2="effect1_backgroundBlur_1513_421" result="shape"/>
</filter>
</defs>
</svg>
